<?xml version="1.0" encoding="utf-8"?>
<!-- Svg Vector Icons : http://www.onlinewebfonts.com/icon -->
<!DOCTYPE svg PUBLIC "-//W3C//DTD SVG 1.1//EN" "http://www.w3.org/Graphics/SVG/1.1/DTD/svg11.dtd">
<svg version="1.1" xmlns="http://www.w3.org/2000/svg" xmlns:xlink="http://www.w3.org/1999/xlink" x="0px" y="0px" viewBox="0 0 256 256" enable-background="new 0 0 256 256" xml:space="preserve">
<metadata> Svg Vector Icons : http://www.onlinewebfonts.com/icon </metadata>
<g> <path fill="#000000" d="M118.6,31.1c0-11-8.9-19.8-19.8-19.8H29.8c-11,0-19.8,8.9-19.8,19.8V100c0,11,8.9,19.8,19.8,19.8h68.9 c11,0,19.8-8.9,19.8-19.8V31.1z M102.3,100c0,2-1.6,3.6-3.6,3.6H29.8c-2,0-3.6-1.6-3.6-3.6V31.1c0-2,1.6-3.6,3.6-3.6h68.9 c2,0,3.6,1.6,3.6,3.6V100z M246,31.1c0-11-8.9-19.8-19.8-19.8h-68.9c-11,0-19.8,8.9-19.8,19.8V100c0,11,8.9,19.8,19.8,19.8h68.9 c11,0,19.8-8.9,19.8-19.8V31.1z M229.7,100c0,2-1.6,3.6-3.6,3.6h-68.9c-2,0-3.6-1.6-3.6-3.6V31.1c0-2,1.6-3.6,3.6-3.6h68.9 c2,0,3.6,1.6,3.6,3.6V100z M118.6,154.1c0-11-8.9-19.8-19.8-19.8H29.8c-11,0-19.8,8.9-19.8,19.8V223c0,11,8.9,19.8,19.8,19.8h68.9 c11,0,19.8-8.9,19.8-19.8V154.1z M102.3,223c0,2-1.6,3.6-3.6,3.6H29.8c-2,0-3.6-1.6-3.6-3.6v-68.9c0-2,1.6-3.6,3.6-3.6h68.9 c2,0,3.6,1.6,3.6,3.6V223z M191.7,136.1c-30,0-54.3,24.3-54.3,54.3c0,30,24.3,54.3,54.3,54.3c30,0,54.3-24.3,54.3-54.3 C246,160.5,221.7,136.1,191.7,136.1z M191.7,228.5c-21,0-38-17.1-38-38c0-21,17.1-38,38-38c21,0,38,17.1,38,38 C229.7,211.4,212.7,228.5,191.7,228.5z"/></g>
</svg>