<?xml version="1.0" encoding="UTF-8"?>
<svg version="1.1" xmlns="http://www.w3.org/2000/svg" width="294" height="262">
<path d="M0 0 C97.02 0 194.04 0 294 0 C294 86.46 294 172.92 294 262 C196.98 262 99.96 262 0 262 C0 175.54 0 89.08 0 0 Z " fill="#FDFDFD" transform="translate(0,0)"/>
<path d="M0 0 C0.77351807 0.00757324 1.54703613 0.01514648 2.34399414 0.02294922 C16.54993999 0.4179192 30.83573152 3.95647081 41.5 13.8125 C44.30480469 16.81812602 46.06505335 19.95542289 47.640625 23.73828125 C48.58097824 25.78697504 48.58097824 25.78697504 51.5625 27.4375 C53.74144909 27.70674594 55.93250006 27.88486313 58.125 28 C64.36975907 28.34112954 64.36975907 28.34112954 66.5625 29.4375 C66.5625 33.3975 66.5625 37.3575 66.5625 41.4375 C59.71397589 43.72034137 50.2645923 43.60697101 43.5625 40.8125 C37.84012681 37.76200994 33.45488034 34.24646469 30.5625 28.4375 C29.9025 28.1075 29.2425 27.7775 28.5625 27.4375 C28.46066406 28.12199219 28.35882813 28.80648437 28.25390625 29.51171875 C27.42480008 33.02019626 26.0452768 35.99505526 24.5 39.25 C23.95214844 40.41144531 23.40429688 41.57289063 22.83984375 42.76953125 C22.41832031 43.64996094 21.99679688 44.53039062 21.5625 45.4375 C22.41328125 45.69660156 23.2640625 45.95570313 24.140625 46.22265625 C27.7371805 47.49951556 30.94967244 49.07348524 34.3125 50.875 C35.44171875 51.47183594 36.5709375 52.06867188 37.734375 52.68359375 C40.5625 54.4375 40.5625 54.4375 42.5625 57.4375 C43.62797535 63.49584239 42.08127448 68.38661462 39.6328125 73.8828125 C38.54468889 76.48001266 37.82818241 79.02617849 37.125 81.75 C35.81451834 86.15294104 34.5415395 88.84247424 30.5625 91.4375 C26.1763498 92.3084529 22.81139116 92.22947976 19 89.8125 C17.09285313 86.66156169 17.07062621 85.09141959 17.5625 81.4375 C18.21124237 79.52371001 18.86902242 77.61072227 19.62890625 75.73828125 C20.74173156 72.99579546 21.74576417 70.22148474 22.75 67.4375 C23.09417969 66.48875 23.43835938 65.54 23.79296875 64.5625 C24.17388672 63.510625 24.17388672 63.510625 24.5625 62.4375 C23.40621094 62.10685547 23.40621094 62.10685547 22.2265625 61.76953125 C17.24163134 59.95731214 12.63822592 57.56950733 7.9375 55.125 C6.99648437 54.65126953 6.05546875 54.17753906 5.0859375 53.68945312 C-4.30066885 48.8161511 -4.30066885 48.8161511 -6.4375 44.4375 C-7.69165205 36.96030912 -5.55008933 31.02139186 -2.4375 24.3125 C-2.0559375 23.45140625 -1.674375 22.5903125 -1.28125 21.703125 C-0.34948161 19.60664612 0.59826605 17.5191939 1.5625 15.4375 C-2.43032535 15.12771183 -4.74779754 15.00984551 -8.203125 17.15234375 C-9.02296875 17.88582031 -9.8428125 18.61929688 -10.6875 19.375 C-14.50048204 22.73208201 -16.66296752 24.24032972 -21.8125 24.8125 C-25.4375 24.4375 -25.4375 24.4375 -28.4375 22.3125 C-30.4375 19.4375 -30.4375 19.4375 -30.44140625 16.58203125 C-29.12680351 12.46430671 -26.75951745 10.67942406 -23.375 8.25 C-22.55225586 7.61288086 -22.55225586 7.61288086 -21.71289062 6.96289062 C-14.95460176 1.9274564 -8.3925689 -0.11748291 0 0 Z " fill="#040404" transform="translate(124.4375,95.5625)"/>
<path d="M0 0 C5.38732814 0.03800584 11.11678005 0.16372676 16.15234375 2.265625 C16.64734375 3.750625 16.64734375 3.750625 17.15234375 5.265625 C22.19132941 6.68968616 24.62453408 6.30776608 29.27734375 3.828125 C30.08429688 3.35503906 30.89125 2.88195312 31.72265625 2.39453125 C34.45898432 1.12315052 36.17034361 0.89915024 39.15234375 1.265625 C39.81234375 1.925625 40.47234375 2.585625 41.15234375 3.265625 C40.97314453 5.25463867 40.97314453 5.25463867 40.15234375 7.265625 C37.77891337 8.91400495 35.56903739 10.25149674 33.02734375 11.578125 C32.37507813 11.95001953 31.7228125 12.32191406 31.05078125 12.70507812 C26.378263 15.1943066 23.44453105 15.5996841 18.15234375 14.265625 C15.40262632 13.41378637 12.82699735 12.34487119 10.15234375 11.265625 C12.62734375 12.750625 12.62734375 12.750625 15.15234375 14.265625 C14.64437366 18.5833708 13.95551596 22.29864614 12.15234375 26.265625 C13.08046875 26.36875 14.00859375 26.471875 14.96484375 26.578125 C18.38232098 27.31522793 19.01066917 27.68488357 21.15234375 30.265625 C22.92698406 33.45544719 24.35368159 36.80801895 25.83984375 40.140625 C26.25556641 41.03910156 26.67128906 41.93757813 27.09960938 42.86328125 C27.49212891 43.73597656 27.88464844 44.60867187 28.2890625 45.5078125 C28.64701904 46.3004248 29.00497559 47.09303711 29.3737793 47.90966797 C30.24341625 50.54121283 30.43797341 52.51214352 30.15234375 55.265625 C28.15234375 57.265625 28.15234375 57.265625 24.7734375 57.39453125 C21.15234375 56.265625 21.15234375 56.265625 19.92626953 54.67529297 C18.88039456 52.55203766 18.02563379 50.42662649 17.21484375 48.203125 C16.91255859 47.44451172 16.61027344 46.68589844 16.29882812 45.90429688 C15.55799725 44.03458085 14.85174019 42.15123181 14.15234375 40.265625 C14.10335937 41.32523438 14.054375 42.38484375 14.00390625 43.4765625 C13.92887666 44.86460997 13.8533289 46.25262951 13.77734375 47.640625 C13.7309375 48.68863281 13.7309375 48.68863281 13.68359375 49.7578125 C13.37890625 55.0390625 13.37890625 55.0390625 11.15234375 57.265625 C9.50234375 56.935625 7.85234375 56.605625 6.15234375 56.265625 C6.15234375 49.995625 6.15234375 43.725625 6.15234375 37.265625 C0.54234375 37.265625 -5.06765625 37.265625 -10.84765625 37.265625 C-10.84765625 43.535625 -10.84765625 49.805625 -10.84765625 56.265625 C-13.32265625 56.760625 -13.32265625 56.760625 -15.84765625 57.265625 C-18.51309743 54.60018382 -18.12557451 53.23852351 -18.19140625 49.515625 C-18.22105469 48.34902344 -18.25070313 47.18242187 -18.28125 45.98046875 C-18.30316406 44.75457031 -18.32507813 43.52867187 -18.34765625 42.265625 C-18.48380833 34.84133244 -18.73760264 27.79908178 -20.37988281 20.54394531 C-21.12182863 16.93025097 -21.30515131 13.31875433 -21.47265625 9.640625 C-21.51132813 8.92261719 -21.55 8.20460937 -21.58984375 7.46484375 C-21.68225653 5.73210405 -21.76593848 3.99890201 -21.84765625 2.265625 C-19.47265625 1.640625 -19.47265625 1.640625 -16.84765625 1.265625 C-14.60187718 3.51140407 -14.47992815 4.23404725 -13.99609375 7.265625 C-13.8669458 8.06637451 -13.73779785 8.86712402 -13.60473633 9.69213867 C-13.4786499 10.54138916 -13.35256348 11.39063965 -13.22265625 12.265625 C-13.09076904 13.12325439 -12.95888184 13.98088379 -12.82299805 14.86450195 C-11.96412988 20.72445895 -11.55611333 26.3375857 -11.84765625 32.265625 C-11.18765625 31.935625 -10.52765625 31.605625 -9.84765625 31.265625 C-9.90695313 30.16992188 -9.96625 29.07421875 -10.02734375 27.9453125 C-10.02493866 22.48815661 -8.52755282 17.58325634 -6.97265625 12.390625 C-6.70324219 11.441875 -6.43382812 10.493125 -6.15625 9.515625 C-3.5254777 0.506834 -3.5254777 0.506834 0 0 Z " fill="#0A0A0A" transform="translate(192.84765625,193.734375)"/>
<path d="M0 0 C0.86625 0.00386719 1.7325 0.00773437 2.625 0.01171875 C5 0.3125 5 0.3125 8 2.3125 C8.3742218 4.66552734 8.3742218 4.66552734 8.37231445 7.6484375 C8.38165764 9.320271 8.38165764 9.320271 8.39118958 11.02587891 C8.38197983 12.23421387 8.37277008 13.44254883 8.36328125 14.6875 C8.36377975 15.92290527 8.36427826 17.15831055 8.36479187 18.43115234 C8.36184634 21.71851525 8.3447929 25.00544866 8.3225708 28.29272461 C8.31251017 30.3104612 8.31218735 32.32794712 8.31567383 34.34570312 C8.32206969 38.20975104 8.314184 42.07347475 8.30078125 45.9375 C8.30214836 47.75000244 8.30214836 47.75000244 8.30354309 49.59912109 C8.29401108 50.71367676 8.28447906 51.82823242 8.2746582 52.9765625 C8.27005081 53.96092285 8.26544342 54.9452832 8.26069641 55.95947266 C8 58.3125 8 58.3125 6 60.3125 C3.50390625 60.61328125 3.50390625 60.61328125 0.5625 60.625 C-0.88962891 60.65013672 -0.88962891 60.65013672 -2.37109375 60.67578125 C-5 60.3125 -5 60.3125 -6.8359375 59.1171875 C-8.40893841 56.67850824 -8.29958194 55.00176982 -8.1875 52.125 C-8.16042969 51.22394531 -8.13335937 50.32289062 -8.10546875 49.39453125 C-8.07066406 48.70746094 -8.03585938 48.02039063 -8 47.3125 C-9.27875 47.35375 -10.5575 47.395 -11.875 47.4375 C-14.0546875 47.5078125 -14.0546875 47.5078125 -16 47.3125 C-18 45.3125 -18 45.3125 -18.1953125 42.7109375 C-18.17210937 41.71320312 -18.14890625 40.71546875 -18.125 39.6875 C-18.10695313 38.68460938 -18.08890625 37.68171875 -18.0703125 36.6484375 C-18.04710937 35.87757812 -18.02390625 35.10671875 -18 34.3125 C-19.65 33.9825 -21.3 33.6525 -23 33.3125 C-23.125 30.9375 -23.125 30.9375 -23 28.3125 C-22.34 27.6525 -21.68 26.9925 -21 26.3125 C-20.01 26.3125 -19.02 26.3125 -18 26.3125 C-18.02320313 25.54164062 -18.04640625 24.77078125 -18.0703125 23.9765625 C-18.08835937 22.97367188 -18.10640625 21.97078125 -18.125 20.9375 C-18.14820313 19.93976562 -18.17140625 18.94203125 -18.1953125 17.9140625 C-18 15.3125 -18 15.3125 -16 13.3125 C-13.31160615 13.04258094 -10.70858064 13.22512643 -8 13.3125 C-8.05220703 12.28189453 -8.05220703 12.28189453 -8.10546875 11.23046875 C-8.14607422 9.87888672 -8.14607422 9.87888672 -8.1875 8.5 C-8.22230469 7.60667969 -8.25710937 6.71335937 -8.29296875 5.79296875 C-8 3.3125 -8 3.3125 -6.80078125 1.5078125 C-4.41974497 -0.07265844 -2.83996302 -0.05493976 0 0 Z " fill="#020202" transform="translate(46,16.6875)"/>
<path d="M0 0 C0.9796875 0.00515625 1.959375 0.0103125 2.96875 0.015625 C3.9484375 0.01046875 4.928125 0.0053125 5.9375 0 C8.46875 0.265625 8.46875 0.265625 10.46875 2.265625 C10.6640625 4.8671875 10.6640625 4.8671875 10.59375 7.890625 C10.57570313 8.89351562 10.55765625 9.89640625 10.5390625 10.9296875 C10.50425781 12.08597656 10.50425781 12.08597656 10.46875 13.265625 C13.44726562 13.16796875 13.44726562 13.16796875 16.42578125 13.0703125 C18.46875 13.265625 18.46875 13.265625 21.46875 15.265625 C21.76171875 17.8671875 21.76171875 17.8671875 21.65625 20.890625 C21.62917969 21.89351562 21.60210937 22.89640625 21.57421875 23.9296875 C21.53941406 24.70054688 21.50460938 25.47140625 21.46875 26.265625 C22.78875 26.595625 24.10875 26.925625 25.46875 27.265625 C26.09375 29.640625 26.09375 29.640625 26.46875 32.265625 C25.80875 32.925625 25.14875 33.585625 24.46875 34.265625 C23.47875 34.265625 22.48875 34.265625 21.46875 34.265625 C21.49195312 35.03648438 21.51515625 35.80734375 21.5390625 36.6015625 C21.56613281 38.10589844 21.56613281 38.10589844 21.59375 39.640625 C21.61695312 40.63835938 21.64015625 41.63609375 21.6640625 42.6640625 C21.46875 45.265625 21.46875 45.265625 19.46875 47.265625 C16.45048347 47.53803173 13.50504378 47.35237625 10.46875 47.265625 C10.46875 50.565625 10.46875 53.865625 10.46875 57.265625 C5.51875 57.265625 0.56875 57.265625 -4.53125 57.265625 C-4.58056912 49.46941051 -4.61693111 41.67328619 -4.64111328 33.87695312 C-4.65119089 31.22296569 -4.66485313 28.5689894 -4.68212891 25.91503906 C-4.70629992 22.10739393 -4.71771535 18.29989516 -4.7265625 14.4921875 C-4.73688507 13.29945221 -4.74720764 12.10671692 -4.75784302 10.87783813 C-4.75799408 9.77684784 -4.75814514 8.67585754 -4.75830078 7.54150391 C-4.76496262 6.0825621 -4.76496262 6.0825621 -4.77175903 4.59414673 C-4.4180579 1.16973989 -3.38233426 0.35493631 0 0 Z " fill="#010101" transform="translate(101.53125,16.734375)"/>
<path d="M0 0 C17.82 0 35.64 0 54 0 C54 2.31 54 4.62 54 7 C46.08 7 38.16 7 30 7 C30 13.27 30 19.54 30 26 C32.31 26 34.62 26 37 26 C36.505 28.475 36.505 28.475 36 31 C30.06 31 24.12 31 18 31 C17.34 29.68 16.68 28.36 16 27 C16.33 26.67 16.66 26.34 17 26 C19.31 26 21.62 26 24 26 C24 19.73 24 13.46 24 7 C16.08 7 8.16 7 0 7 C0 4.69 0 2.38 0 0 Z " fill="#010101" transform="translate(218,220)"/>
<path d="M0 0 C2.84082095 1.76762193 4.85062246 3.03355417 6.8125 5.75 C7.37576014 9.12956087 7.5598095 11.4721578 5.7890625 14.5 C3.63769885 17.21202206 2.12237652 18.64670783 -1.1875 19.75 C-10.2634862 20.74736112 -10.2634862 20.74736112 -14.20703125 18.703125 C-17.38456989 16.07450423 -19.00760522 14.06922835 -19.5625 10 C-19.05531742 5.60441764 -17.27474149 3.83724149 -14.1875 0.75 C-9.83076464 -2.44493926 -4.83947941 -1.89783506 0 0 Z " fill="#060606" transform="translate(161.1875,75.25)"/>
<path d="M0 0 C3.74086417 1.24695472 5.25795253 3.19266568 8 6 C9.64864545 7.35555293 11.31003995 8.69631653 13 10 C11.72414356 14.98743882 9.91418193 17.65862518 6 21 C3.11734851 21.96088383 1.32337729 22.11670941 -1.66796875 22.09765625 C-2.56064453 22.09443359 -3.45332031 22.09121094 -4.37304688 22.08789062 C-5.76620117 22.07532227 -5.76620117 22.07532227 -7.1875 22.0625 C-8.12787109 22.05798828 -9.06824219 22.05347656 -10.03710938 22.04882812 C-12.35810008 22.03704645 -14.67905807 22.01911114 -17 22 C-17 17.38 -17 12.76 -17 8 C-14.9375 7.979375 -12.875 7.95875 -10.75 7.9375 C-6.05448347 7.75140602 -6.05448347 7.75140602 -2.24609375 5.375 C-1.01702379 3.25338199 -1.01702379 3.25338199 0 0 Z " fill="#040404" transform="translate(110,144)"/>
<path d="M0 0 C10.23 0 20.46 0 31 0 C31 2.64 31 5.28 31 8 C20.77 8 10.54 8 0 8 C0 5.36 0 2.72 0 0 Z " fill="#000000" transform="translate(60,43)"/>
<path d="M0 0 C2.9375 1.0625 2.9375 1.0625 5 3 C6.0625 6.4375 6.0625 6.4375 6 10 C4.375053 12.80672664 3.00440198 13.71195921 -0.09765625 14.6015625 C-4.11052814 15.2848896 -6.3512802 15.31774031 -10.0625 13.5 C-12 11 -12 11 -12.5625 7.5 C-12 4 -12 4 -10.5 1.5625 C-7.02252176 -0.6109239 -3.93541589 -0.62466919 0 0 Z " fill="#0A0A0A" transform="translate(210,177)"/>
<path d="M0 0 C9.24 0 18.48 0 28 0 C27 3 27 3 24.625 4.1875 C22 5 22 5 19 5 C19 5.66 19 6.32 19 7 C15.37 7 11.74 7 8 7 C8 6.34 8 5.68 8 5 C7.05125 4.9175 6.1025 4.835 5.125 4.75 C4.09375 4.5025 3.0625 4.255 2 4 C1.34 2.68 0.68 1.36 0 0 Z " fill="#212121" transform="translate(225,210)"/>
<path d="M0 0 C3.83206182 0.41427695 6.08025204 1.51280729 9 4 C6.8125 5.625 6.8125 5.625 4 7 C1.1875 6.1875 1.1875 6.1875 -1 5 C-1 1 -1 1 0 0 Z " fill="#141414" transform="translate(218,188)"/>
</svg>
